<svg width="366" height="194" viewBox="0 0 366 194" fill="none" xmlns="http://www.w3.org/2000/svg">
<path d="M37.6541 116C58.4129 116 75.2413 99.102 75.2413 78.258C75.2413 57.4138 58.4129 40.5161 37.6541 40.5161C16.8952 40.5161 0.0668222 57.4138 0.0668222 78.258C0.0668222 99.102 16.8952 116 37.6541 116Z" fill="#2D3E9F"/>
<path d="M0.0668222 78.258C0.0668222 78.258 -3.48767 38.9978 41.2518 2.12685C43.4579 0.308747 46.6841 0.518892 48.7014 2.54448V2.54448C50.9063 4.75843 50.9439 8.36881 49.0106 10.8235C41.3562 20.5428 25.1277 45.9778 33.8953 78.2581L0.0668222 78.258Z" fill="#2D3E9F"/>
<path d="M120.413 116C141.172 116 158 99.102 158 78.258C158 57.4138 141.172 40.5161 120.413 40.5161C99.6539 40.5161 82.8256 57.4138 82.8256 78.258C82.8256 99.102 99.6539 116 120.413 116Z" fill="#2D3E9F"/>
<path d="M82.8256 78.258C82.8256 78.258 79.271 38.9978 124.01 2.12684C126.216 0.308726 129.443 0.518804 131.46 2.54432V2.54432C133.665 4.75833 133.703 8.36897 131.769 10.8239C124.115 20.5433 107.887 45.9782 116.654 78.2581L82.8256 78.258Z" fill="#2D3E9F"/>
<path d="M327.913 78.258C307.154 78.258 290.326 95.156 290.326 116C290.326 136.844 307.154 153.742 327.913 153.742C348.672 153.742 365.5 136.844 365.5 116C365.5 95.156 348.672 78.258 327.913 78.258Z" fill="#2D3E9F"/>
<path d="M365.5 116C365.5 116 369.055 155.26 324.316 192.131C322.109 193.949 318.883 193.739 316.866 191.714V191.714C314.661 189.5 314.623 185.889 316.556 183.435C324.211 173.715 340.439 148.28 331.672 116H365.5Z" fill="#2D3E9F"/>
<path d="M245.154 78.258C224.395 78.258 207.567 95.156 207.567 116C207.567 136.844 224.395 153.742 245.154 153.742C265.913 153.742 282.741 136.844 282.741 116C282.741 95.156 265.913 78.258 245.154 78.258Z" fill="#2D3E9F"/>
<path d="M282.741 116C282.741 116 286.296 155.26 241.557 192.131C239.35 193.949 236.124 193.739 234.107 191.714V191.714C231.902 189.5 231.864 185.889 233.797 183.435C241.452 173.715 257.68 148.28 248.913 116H282.741Z" fill="#2D3E9F"/>
</svg>
